<?xml version="1.0"?>
<svg width="456" height="112" xmlns="http://www.w3.org/2000/svg" xmlns:svg="http://www.w3.org/2000/svg" class="svgbob">
 <style>.svgbob line, .svgbob path, .svgbob circle, .svgbob rect, .svgbob polygon {
    stroke:  #89B4FA;
    stroke-width: 2;
    stroke-opacity: 1;
    fill-opacity: 1;
    stroke-linecap: round;
    stroke-linejoin: miter;
}
.svgbob text {
    white-space: pre;
    fill:#89B4FA;
    font-family: Iosevka Fixed, monospace;
    font-size: 14px;
}
.svgbob rect.backdrop {
    stroke: none;
    fill: white;
}
.svgbob .broken {
    stroke-dasharray: 8;
}
.svgbob .filled {
    fill: #89B4FA;
}
.svgbob .bg_filled {
    fill: white;
    stroke-width: 1;
}
.svgbob .nofill {
    fill: white;
}
.svgbob .end_marked_arrow {
    marker-end: url(#arrow);
}
.svgbob .start_marked_arrow {
    marker-start: url(#arrow);
}
.svgbob .end_marked_diamond {
    marker-end: url(#diamond);
}
.svgbob .start_marked_diamond {
    marker-start: url(#diamond);
}
.svgbob .end_marked_circle {
    marker-end: url(#circle);
}
.svgbob .start_marked_circle {
    marker-start: url(#circle);
}
.svgbob .end_marked_open_circle {
    marker-end: url(#open_circle);
}
.svgbob .start_marked_open_circle {
    marker-start: url(#open_circle);
}
.svgbob .end_marked_big_open_circle {
    marker-end: url(#big_open_circle);
}
.svgbob .start_marked_big_open_circle {
    marker-start: url(#big_open_circle);
}
  <!--separator--></style>
 <g class="layer">
  <title>Layer 1</title>
  <rect class="solid filled" fill="#007f00" height="16" id="svg_7" width="8" x="1"/>
  <rect class="solid filled" fill="#007f00" height="16" id="svg_8" width="8" x="9"/>
  <rect class="solid filled" fill="#007f00" height="16" id="svg_9" width="8" x="17"/>
  <rect class="solid filled" fill="#007f00" height="16" id="svg_10" width="8" x="25"/>
  <rect class="solid filled" fill="#007f00" height="16" id="svg_11" width="8" x="33"/>
  <rect class="solid filled" fill="#007f00" height="16" id="svg_12" width="8" x="41"/>
  <rect class="solid filled" fill="#007f00" height="16" id="svg_13" width="8" x="49"/>
  <rect class="solid filled" fill="#007f00" height="16" id="svg_14" width="8" x="73"/>
  <rect class="solid filled" fill="#007f00" height="16" id="svg_15" width="8" x="81"/>
  <rect class="solid filled" fill="#007f00" height="16" id="svg_16" width="8" x="89"/>
  <rect class="solid filled" fill="#007f00" height="16" id="svg_17" width="8" x="97"/>
  <rect class="solid filled" fill="#007f00" height="16" id="svg_18" width="8" x="105"/>
  <rect class="solid filled" fill="#007f00" height="16" id="svg_19" width="8" x="129"/>
  <rect class="solid filled" fill="#007f00" height="16" id="svg_20" width="8" x="137"/>
  <rect class="solid filled" fill="#007f00" height="16" id="svg_21" width="8" x="145"/>
  <rect class="solid filled" fill="#007f00" height="16" id="svg_22" width="8" x="153"/>
  <rect class="solid filled" fill="#007f00" height="16" id="svg_23" width="8" x="161"/>
  <rect class="solid filled" fill="#007f00" height="16" id="svg_24" width="8" x="169"/>
  <rect class="solid filled" fill="#007f00" height="16" id="svg_25" width="8" x="193"/>
  <rect class="solid filled" fill="#007f00" height="16" id="svg_26" width="8" x="201"/>
  <rect class="solid filled" fill="#007f00" height="16" id="svg_27" width="8" x="217"/>
  <rect class="solid filled" fill="#007f00" height="16" id="svg_28" width="8" x="225"/>
  <rect class="solid filled" fill="#007f00" height="16" id="svg_29" width="8" x="257"/>
  <rect class="solid filled" fill="#007f00" height="16" id="svg_30" width="8" x="265"/>
  <rect class="solid filled" fill="#007f00" height="16" id="svg_31" width="8" x="281"/>
  <rect class="solid filled" fill="#007f00" height="16" id="svg_32" width="8" x="289"/>
  <rect class="solid filled" fill="#007f00" height="16" id="svg_33" width="8" x="321"/>
  <rect class="solid filled" fill="#007f00" height="16" id="svg_34" width="8" x="329"/>
  <rect class="solid filled" fill="#007f00" height="16" id="svg_35" width="8" x="345"/>
  <rect class="solid filled" fill="#007f00" height="16" id="svg_36" width="8" x="353"/>
  <rect class="solid filled" fill="#007f00" height="16" id="svg_37" width="8" x="369"/>
  <rect class="solid filled" fill="#007f00" height="16" id="svg_38" width="8" x="377"/>
  <rect class="solid filled" fill="#007f00" height="16" id="svg_39" width="8" x="385"/>
  <rect class="solid filled" fill="#007f00" height="16" id="svg_40" width="8" x="425"/>
  <rect class="solid filled" fill="#007f00" height="16" id="svg_41" width="8" x="433"/>
  <rect class="solid filled" fill="#007f00" height="16" id="svg_42" width="8" x="1" y="16"/>
  <rect class="solid filled" fill="#007f00" height="16" id="svg_43" width="8" x="9" y="16"/>
  <rect class="solid filled" fill="#007f00" height="16" id="svg_44" width="8" x="65" y="16"/>
  <rect class="solid filled" fill="#007f00" height="16" id="svg_45" width="8" x="73" y="16"/>
  <rect class="solid filled" fill="#007f00" height="16" id="svg_46" width="8" x="105" y="16"/>
  <rect class="solid filled" fill="#007f00" height="16" id="svg_47" width="8" x="113" y="16"/>
  <rect class="solid filled" fill="#007f00" height="16" id="svg_48" width="8" x="129" y="16"/>
  <rect class="solid filled" fill="#007f00" height="16" id="svg_49" width="8" x="137" y="16"/>
  <rect class="solid filled" fill="#007f00" height="16" id="svg_50" width="8" x="169" y="16"/>
  <rect class="solid filled" fill="#007f00" height="16" id="svg_51" width="8" x="177" y="16"/>
  <rect class="solid filled" fill="#007f00" height="16" id="svg_52" width="8" x="193" y="16"/>
  <rect class="solid filled" fill="#007f00" height="16" id="svg_53" width="8" x="201" y="16"/>
  <rect class="solid filled" fill="#007f00" height="16" id="svg_54" width="8" x="217" y="16"/>
  <rect class="solid filled" fill="#007f00" height="16" id="svg_55" width="8" x="225" y="16"/>
  <rect class="solid filled" fill="#007f00" height="16" id="svg_56" width="8" x="249" y="16"/>
  <rect class="solid filled" fill="#007f00" height="16" id="svg_57" width="8" x="257" y="16"/>
  <rect class="solid filled" fill="#007f00" height="16" id="svg_58" width="8" x="281" y="16"/>
  <rect class="solid filled" fill="#007f00" height="16" id="svg_59" width="8" x="289" y="16"/>
  <rect class="solid filled" fill="#007f00" height="16" id="svg_60" width="8" x="321" y="16"/>
  <rect class="solid filled" fill="#007f00" height="16" id="svg_61" width="8" x="329" y="16"/>
  <rect class="solid filled" fill="#007f00" height="16" id="svg_62" width="8" x="345" y="16"/>
  <rect class="solid filled" fill="#007f00" height="16" id="svg_63" width="8" x="353" y="16"/>
  <rect class="solid filled" fill="#007f00" height="16" id="svg_64" width="8" x="369" y="16"/>
  <rect class="solid filled" fill="#007f00" height="16" id="svg_65" width="8" x="377" y="16"/>
  <rect class="solid filled" fill="#007f00" height="16" id="svg_66" width="8" x="385" y="16"/>
  <rect class="solid filled" fill="#007f00" height="16" id="svg_67" width="8" x="393" y="16"/>
  <rect class="solid filled" fill="#007f00" height="16" id="svg_68" width="8" x="425" y="16"/>
  <rect class="solid filled" fill="#007f00" height="16" id="svg_69" width="8" x="433" y="16"/>
  <rect class="solid filled" fill="#007f00" height="16" id="svg_70" width="8" x="1" y="32"/>
  <rect class="solid filled" fill="#007f00" height="16" id="svg_71" width="8" x="9" y="32"/>
  <rect class="solid filled" fill="#007f00" height="16" id="svg_72" width="8" x="17" y="32"/>
  <rect class="solid filled" fill="#007f00" height="16" id="svg_73" width="8" x="25" y="32"/>
  <rect class="solid filled" fill="#007f00" height="16" id="svg_74" width="8" x="33" y="32"/>
  <rect class="solid filled" fill="#007f00" height="16" id="svg_75" width="8" x="41" y="32"/>
  <rect class="solid filled" fill="#007f00" height="16" id="svg_76" width="8" x="49" y="32"/>
  <rect class="solid filled" fill="#007f00" height="16" id="svg_77" width="8" x="65" y="32"/>
  <rect class="solid filled" fill="#007f00" height="16" id="svg_78" width="8" x="73" y="32"/>
  <rect class="solid filled" fill="#007f00" height="16" id="svg_79" width="8" x="81" y="32"/>
  <rect class="solid filled" fill="#007f00" height="16" id="svg_80" width="8" x="89" y="32"/>
  <rect class="solid filled" fill="#007f00" height="16" id="svg_81" width="8" x="97" y="32"/>
  <rect class="solid filled" fill="#007f00" height="16" id="svg_82" width="8" x="105" y="32"/>
  <rect class="solid filled" fill="#007f00" height="16" id="svg_83" width="8" x="113" y="32"/>
  <rect class="solid filled" fill="#007f00" height="16" id="svg_84" width="8" x="129" y="32"/>
  <rect class="solid filled" fill="#007f00" height="16" id="svg_85" width="8" x="137" y="32"/>
  <rect class="solid filled" fill="#007f00" height="16" id="svg_86" width="8" x="145" y="32"/>
  <rect class="solid filled" fill="#007f00" height="16" id="svg_87" width="8" x="153" y="32"/>
  <rect class="solid filled" fill="#007f00" height="16" id="svg_88" width="8" x="161" y="32"/>
  <rect class="solid filled" fill="#007f00" height="16" id="svg_89" width="8" x="169" y="32"/>
  <rect class="solid filled" fill="#007f00" height="16" id="svg_90" width="8" x="193" y="32"/>
  <rect class="solid filled" fill="#007f00" height="16" id="svg_91" width="8" x="201" y="32"/>
  <rect class="solid filled" fill="#007f00" height="16" id="svg_92" width="8" x="217" y="32"/>
  <rect class="solid filled" fill="#007f00" height="16" id="svg_93" width="8" x="225" y="32"/>
  <rect class="solid filled" fill="#007f00" height="16" id="svg_94" width="8" x="233" y="32"/>
  <rect class="solid filled" fill="#007f00" height="16" id="svg_95" width="8" x="241" y="32"/>
  <rect class="solid filled" fill="#007f00" height="16" id="svg_96" width="8" x="249" y="32"/>
  <rect class="solid filled" fill="#007f00" height="16" id="svg_97" width="8" x="281" y="32"/>
  <rect class="solid filled" fill="#007f00" height="16" id="svg_98" width="8" x="289" y="32"/>
  <rect class="solid filled" fill="#007f00" height="16" id="svg_99" width="8" x="297" y="32"/>
  <rect class="solid filled" fill="#007f00" height="16" id="svg_100" width="8" x="305" y="32"/>
  <rect class="solid filled" fill="#007f00" height="16" id="svg_101" width="8" x="313" y="32"/>
  <rect class="solid filled" fill="#007f00" height="16" id="svg_102" width="8" x="321" y="32"/>
  <rect class="solid filled" fill="#007f00" height="16" id="svg_103" width="8" x="329" y="32"/>
  <rect class="solid filled" fill="#007f00" height="16" id="svg_104" width="8" x="345" y="32"/>
  <rect class="solid filled" fill="#007f00" height="16" id="svg_105" width="8" x="353" y="32"/>
  <rect class="solid filled" fill="#007f00" height="16" id="svg_106" width="8" x="369" y="32"/>
  <rect class="solid filled" fill="#007f00" height="16" id="svg_107" width="8" x="377" y="32"/>
  <rect class="solid filled" fill="#007f00" height="16" id="svg_108" width="8" x="393" y="32"/>
  <rect class="solid filled" fill="#007f00" height="16" id="svg_109" width="8" x="401" y="32"/>
  <rect class="solid filled" fill="#007f00" height="16" id="svg_110" width="8" x="425" y="32"/>
  <rect class="solid filled" fill="#007f00" height="16" id="svg_111" width="8" x="433" y="32"/>
  <rect class="solid filled" fill="#007f00" height="16" id="svg_112" width="8" x="41" y="48"/>
  <rect class="solid filled" fill="#007f00" height="16" id="svg_113" width="8" x="49" y="48"/>
  <rect class="solid filled" fill="#007f00" height="16" id="svg_114" width="8" x="65" y="48"/>
  <rect class="solid filled" fill="#007f00" height="16" id="svg_115" width="8" x="73" y="48"/>
  <rect class="solid filled" fill="#007f00" height="16" id="svg_116" width="8" x="105" y="48"/>
  <rect class="solid filled" fill="#007f00" height="16" id="svg_117" width="8" x="113" y="48"/>
  <rect class="solid filled" fill="#007f00" height="16" id="svg_118" width="8" x="129" y="48"/>
  <rect class="solid filled" fill="#007f00" height="16" id="svg_119" width="8" x="137" y="48"/>
  <rect class="solid filled" fill="#007f00" height="16" id="svg_120" width="8" x="169" y="48"/>
  <rect class="solid filled" fill="#007f00" height="16" id="svg_121" width="8" x="177" y="48"/>
  <rect class="solid filled" fill="#007f00" height="16" id="svg_122" width="8" x="193" y="48"/>
  <rect class="solid filled" fill="#007f00" height="16" id="svg_123" width="8" x="201" y="48"/>
  <rect class="solid filled" fill="#007f00" height="16" id="svg_124" width="8" x="217" y="48"/>
  <rect class="solid filled" fill="#007f00" height="16" id="svg_125" width="8" x="225" y="48"/>
  <rect class="solid filled" fill="#007f00" height="16" id="svg_126" width="8" x="249" y="48"/>
  <rect class="solid filled" fill="#007f00" height="16" id="svg_127" width="8" x="257" y="48"/>
  <rect class="solid filled" fill="#007f00" height="16" id="svg_128" width="8" x="281" y="48"/>
  <rect class="solid filled" fill="#007f00" height="16" id="svg_129" width="8" x="289" y="48"/>
  <rect class="solid filled" fill="#007f00" height="16" id="svg_130" width="8" x="321" y="48"/>
  <rect class="solid filled" fill="#007f00" height="16" id="svg_131" width="8" x="329" y="48"/>
  <rect class="solid filled" fill="#007f00" height="16" id="svg_132" width="8" x="345" y="48"/>
  <rect class="solid filled" fill="#007f00" height="16" id="svg_133" width="8" x="353" y="48"/>
  <rect class="solid filled" fill="#007f00" height="16" id="svg_134" width="8" x="369" y="48"/>
  <rect class="solid filled" fill="#007f00" height="16" id="svg_135" width="8" x="377" y="48"/>
  <rect class="solid filled" fill="#007f00" height="16" id="svg_136" width="8" x="401" y="48"/>
  <rect class="solid filled" fill="#007f00" height="16" id="svg_137" width="8" x="409" y="48"/>
  <rect class="solid filled" fill="#007f00" height="16" id="svg_138" width="8" x="425" y="48"/>
  <rect class="solid filled" fill="#007f00" height="16" id="svg_139" width="8" x="433" y="48"/>
  <rect class="solid filled" fill="#007f00" height="16" id="svg_140" width="8" x="1" y="64"/>
  <rect class="solid filled" fill="#007f00" height="16" id="svg_141" width="8" x="9" y="64"/>
  <rect class="solid filled" fill="#007f00" height="16" id="svg_142" width="8" x="17" y="64"/>
  <rect class="solid filled" fill="#007f00" height="16" id="svg_143" width="8" x="25" y="64"/>
  <rect class="solid filled" fill="#007f00" height="16" id="svg_144" width="8" x="33" y="64"/>
  <rect class="solid filled" fill="#007f00" height="16" id="svg_145" width="8" x="41" y="64"/>
  <rect class="solid filled" fill="#007f00" height="16" id="svg_146" width="8" x="49" y="64"/>
  <rect class="solid filled" fill="#007f00" height="16" id="svg_147" width="8" x="65" y="64"/>
  <rect class="solid filled" fill="#007f00" height="16" id="svg_148" width="8" x="73" y="64"/>
  <rect class="solid filled" fill="#007f00" height="16" id="svg_149" width="8" x="105" y="64"/>
  <rect class="solid filled" fill="#007f00" height="16" id="svg_150" width="8" x="113" y="64"/>
  <rect class="solid filled" fill="#007f00" height="16" id="svg_151" width="8" x="129" y="64"/>
  <rect class="solid filled" fill="#007f00" height="16" id="svg_152" width="8" x="137" y="64"/>
  <rect class="solid filled" fill="#007f00" height="16" id="svg_153" width="8" x="169" y="64"/>
  <rect class="solid filled" fill="#007f00" height="16" id="svg_154" width="8" x="177" y="64"/>
  <rect class="solid filled" fill="#007f00" height="16" id="svg_155" width="8" x="193" y="64"/>
  <rect class="solid filled" fill="#007f00" height="16" id="svg_156" width="8" x="201" y="64"/>
  <rect class="solid filled" fill="#007f00" height="16" id="svg_157" width="8" x="217" y="64"/>
  <rect class="solid filled" fill="#007f00" height="16" id="svg_158" width="8" x="225" y="64"/>
  <rect class="solid filled" fill="#007f00" height="16" id="svg_159" width="8" x="257" y="64"/>
  <rect class="solid filled" fill="#007f00" height="16" id="svg_160" width="8" x="265" y="64"/>
  <rect class="solid filled" fill="#007f00" height="16" id="svg_161" width="8" x="281" y="64"/>
  <rect class="solid filled" fill="#007f00" height="16" id="svg_162" width="8" x="289" y="64"/>
  <rect class="solid filled" fill="#007f00" height="16" id="svg_163" width="8" x="321" y="64"/>
  <rect class="solid filled" fill="#007f00" height="16" id="svg_164" width="8" x="329" y="64"/>
  <rect class="solid filled" fill="#007f00" height="16" id="svg_165" width="8" x="345" y="64"/>
  <rect class="solid filled" fill="#007f00" height="16" id="svg_166" width="8" x="353" y="64"/>
  <rect class="solid filled" fill="#007f00" height="16" id="svg_167" width="8" x="369" y="64"/>
  <rect class="solid filled" fill="#007f00" height="16" id="svg_168" width="8" x="377" y="64"/>
  <rect class="solid filled" fill="#007f00" height="16" id="svg_169" width="8" x="409" y="64"/>
  <rect class="solid filled" fill="#007f00" height="16" id="svg_170" width="8" x="417" y="64"/>
  <rect class="solid filled" fill="#007f00" height="16" id="svg_171" width="8" x="425" y="64"/>
  <rect class="solid filled" fill="#007f00" height="16" id="svg_172" width="8" x="433" y="64"/>
  <g id="svg_173">
   <line class="solid" fill="#007f00" id="svg_174" x1="57" x2="63" y1="8" y2="8"/>
   <line class="solid" fill="#007f00" id="svg_175" x1="63" x2="63" y1="8" y2="28"/>
   <line class="solid" fill="#007f00" id="svg_176" x1="23" x2="63" y1="28" y2="28"/>
   <line class="solid" fill="#007f00" id="svg_177" x1="23" x2="23" y1="28" y2="32"/>
  </g>
  <g id="svg_178">
   <line class="solid" fill="#007f00" id="svg_179" x1="57" x2="59" y1="12" y2="12"/>
   <line class="solid" fill="#007f00" id="svg_180" x1="59" x2="59" y1="12" y2="24"/>
   <line class="solid" fill="#007f00" id="svg_181" x1="19" x2="59" y1="24" y2="24"/>
   <line class="solid" fill="#007f00" id="svg_182" x1="19" x2="19" y1="24" y2="32"/>
  </g>
  <g id="svg_183">
   <line class="solid" fill="#007f00" id="svg_184" x1="113" x2="119" y1="8" y2="8"/>
   <line class="solid" fill="#007f00" id="svg_185" x1="119" x2="119" y1="8" y2="16"/>
  </g>
  <g id="svg_186">
   <line class="solid" fill="#007f00" id="svg_187" x1="113" x2="115" y1="12" y2="12"/>
   <line class="solid" fill="#007f00" id="svg_188" x1="115" x2="115" y1="12" y2="16"/>
  </g>
  <g id="svg_189">
   <line class="solid" fill="#007f00" id="svg_190" x1="177" x2="183" y1="8" y2="8"/>
   <line class="solid" fill="#007f00" id="svg_191" x1="183" x2="183" y1="8" y2="16"/>
  </g>
  <g id="svg_192">
   <line class="solid" fill="#007f00" id="svg_193" x1="177" x2="179" y1="12" y2="12"/>
   <line class="solid" fill="#007f00" id="svg_194" x1="179" x2="179" y1="12" y2="16"/>
  </g>
  <g id="svg_195">
   <line class="solid" fill="#007f00" id="svg_196" x1="209" x2="215" y1="8" y2="8"/>
   <line class="solid" fill="#007f00" id="svg_197" x1="215" x2="215" y1="8" y2="92"/>
   <line class="solid" fill="#007f00" id="svg_198" x1="195" x2="195" y1="80" y2="92"/>
   <line class="solid" fill="#007f00" id="svg_199" x1="195" x2="215" y1="92" y2="92"/>
  </g>
  <g id="svg_200">
   <line class="solid" fill="#007f00" id="svg_201" x1="209" x2="211" y1="12" y2="12"/>
   <line class="solid" fill="#007f00" id="svg_202" x1="211" x2="211" y1="12" y2="88"/>
   <line class="solid" fill="#007f00" id="svg_203" x1="199" x2="199" y1="80" y2="88"/>
   <line class="solid" fill="#007f00" id="svg_204" x1="199" x2="211" y1="88" y2="88"/>
  </g>
  <g id="svg_205">
   <line class="solid" fill="#007f00" id="svg_206" x1="233" x2="239" y1="8" y2="8"/>
   <line class="solid" fill="#007f00" id="svg_207" x1="239" x2="239" y1="8" y2="32"/>
  </g>
  <g id="svg_208">
   <line class="solid" fill="#007f00" id="svg_209" x1="233" x2="235" y1="12" y2="12"/>
   <line class="solid" fill="#007f00" id="svg_210" x1="235" x2="235" y1="12" y2="32"/>
  </g>
  <g id="svg_211">
   <line class="solid" fill="#007f00" id="svg_212" x1="273" x2="279" y1="8" y2="8"/>
   <line class="solid" fill="#007f00" id="svg_213" x1="279" x2="279" y1="8" y2="28"/>
   <line class="solid" fill="#007f00" id="svg_214" x1="271" x2="279" y1="28" y2="28"/>
   <line class="solid" fill="#007f00" id="svg_215" x1="271" x2="271" y1="28" y2="44"/>
   <line class="solid" fill="#007f00" id="svg_216" x1="263" x2="271" y1="44" y2="44"/>
   <line class="solid" fill="#007f00" id="svg_217" x1="263" x2="263" y1="44" y2="48"/>
  </g>
  <g id="svg_218">
   <line class="solid" fill="#007f00" id="svg_219" x1="273" x2="275" y1="12" y2="12"/>
   <line class="solid" fill="#007f00" id="svg_220" x1="275" x2="275" y1="12" y2="24"/>
   <line class="solid" fill="#007f00" id="svg_221" x1="267" x2="275" y1="24" y2="24"/>
   <line class="solid" fill="#007f00" id="svg_222" x1="267" x2="267" y1="24" y2="40"/>
   <line class="solid" fill="#007f00" id="svg_223" x1="259" x2="267" y1="40" y2="40"/>
   <line class="solid" fill="#007f00" id="svg_224" x1="259" x2="259" y1="40" y2="48"/>
  </g>
  <g id="svg_225">
   <line class="solid" fill="#007f00" id="svg_226" x1="297" x2="303" y1="8" y2="8"/>
   <line class="solid" fill="#007f00" id="svg_227" x1="303" x2="303" y1="8" y2="32"/>
  </g>
  <g id="svg_228">
   <line class="solid" fill="#007f00" id="svg_229" x1="297" x2="299" y1="12" y2="12"/>
   <line class="solid" fill="#007f00" id="svg_230" x1="299" x2="299" y1="12" y2="32"/>
  </g>
  <g id="svg_231">
   <line class="solid" fill="#007f00" id="svg_232" x1="337" x2="343" y1="8" y2="8"/>
   <line class="solid" fill="#007f00" id="svg_233" x1="343" x2="343" y1="8" y2="92"/>
   <line class="solid" fill="#007f00" id="svg_234" x1="323" x2="323" y1="80" y2="92"/>
   <line class="solid" fill="#007f00" id="svg_235" x1="323" x2="343" y1="92" y2="92"/>
  </g>
  <g id="svg_236">
   <line class="solid" fill="#007f00" id="svg_237" x1="337" x2="339" y1="12" y2="12"/>
   <line class="solid" fill="#007f00" id="svg_238" x1="339" x2="339" y1="12" y2="88"/>
   <line class="solid" fill="#007f00" id="svg_239" x1="327" x2="327" y1="80" y2="88"/>
   <line class="solid" fill="#007f00" id="svg_240" x1="327" x2="339" y1="88" y2="88"/>
  </g>
  <g id="svg_241">
   <line class="solid" fill="#007f00" id="svg_242" x1="361" x2="367" y1="8" y2="8"/>
   <line class="solid" fill="#007f00" id="svg_243" x1="367" x2="367" y1="8" y2="92"/>
   <line class="solid" fill="#007f00" id="svg_244" x1="347" x2="347" y1="80" y2="92"/>
   <line class="solid" fill="#007f00" id="svg_245" x1="347" x2="367" y1="92" y2="92"/>
  </g>
  <g id="svg_246">
   <line class="solid" fill="#007f00" id="svg_247" x1="361" x2="363" y1="12" y2="12"/>
   <line class="solid" fill="#007f00" id="svg_248" x1="363" x2="363" y1="12" y2="88"/>
   <line class="solid" fill="#007f00" id="svg_249" x1="351" x2="351" y1="80" y2="88"/>
   <line class="solid" fill="#007f00" id="svg_250" x1="351" x2="363" y1="88" y2="88"/>
  </g>
  <g id="svg_251">
   <line class="solid" fill="#007f00" id="svg_252" x1="393" x2="399" y1="8" y2="8"/>
   <line class="solid" fill="#007f00" id="svg_253" x1="399" x2="399" y1="8" y2="16"/>
  </g>
  <g id="svg_254">
   <line class="solid" fill="#007f00" id="svg_255" x1="393" x2="395" y1="12" y2="12"/>
   <line class="solid" fill="#007f00" id="svg_256" x1="395" x2="395" y1="12" y2="16"/>
  </g>
  <g id="svg_257">
   <line class="solid" fill="#007f00" id="svg_258" x1="441" x2="447" y1="8" y2="8"/>
   <line class="solid" fill="#007f00" id="svg_259" x1="447" x2="447" y1="8" y2="92"/>
   <line class="solid" fill="#007f00" id="svg_260" x1="411" x2="411" y1="80" y2="92"/>
   <line class="solid" fill="#007f00" id="svg_261" x1="411" x2="447" y1="92" y2="92"/>
  </g>
  <g id="svg_262">
   <line class="solid" fill="#007f00" id="svg_263" x1="441" x2="443" y1="12" y2="12"/>
   <line class="solid" fill="#007f00" id="svg_264" x1="443" x2="443" y1="12" y2="88"/>
   <line class="solid" fill="#007f00" id="svg_265" x1="415" x2="415" y1="80" y2="88"/>
   <line class="solid" fill="#007f00" id="svg_266" x1="415" x2="443" y1="88" y2="88"/>
  </g>
  <g id="svg_267">
   <line class="solid" fill="#007f00" id="svg_268" x1="83" x2="105" y1="24" y2="24"/>
   <line class="solid" fill="#007f00" id="svg_269" x1="83" x2="83" y1="24" y2="32"/>
  </g>
  <g id="svg_270">
   <line class="solid" fill="#007f00" id="svg_271" x1="87" x2="105" y1="28" y2="28"/>
   <line class="solid" fill="#007f00" id="svg_272" x1="87" x2="87" y1="28" y2="32"/>
  </g>
  <g id="svg_273">
   <line class="solid" fill="#007f00" id="svg_274" x1="121" x2="127" y1="24" y2="24"/>
   <line class="solid" fill="#007f00" id="svg_275" x1="127" x2="127" y1="24" y2="92"/>
   <line class="solid" fill="#007f00" id="svg_276" x1="107" x2="107" y1="80" y2="92"/>
   <line class="solid" fill="#007f00" id="svg_277" x1="107" x2="127" y1="92" y2="92"/>
  </g>
  <g id="svg_278">
   <line class="solid" fill="#007f00" id="svg_279" x1="121" x2="123" y1="28" y2="28"/>
   <line class="solid" fill="#007f00" id="svg_280" x1="123" x2="123" y1="28" y2="88"/>
   <line class="solid" fill="#007f00" id="svg_281" x1="111" x2="111" y1="80" y2="88"/>
   <line class="solid" fill="#007f00" id="svg_282" x1="111" x2="123" y1="88" y2="88"/>
  </g>
  <g id="svg_283">
   <line class="solid" fill="#007f00" id="svg_284" x1="147" x2="169" y1="24" y2="24"/>
   <line class="solid" fill="#007f00" id="svg_285" x1="147" x2="147" y1="24" y2="32"/>
  </g>
  <g id="svg_286">
   <line class="solid" fill="#007f00" id="svg_287" x1="151" x2="169" y1="28" y2="28"/>
   <line class="solid" fill="#007f00" id="svg_288" x1="151" x2="151" y1="28" y2="32"/>
  </g>
  <g id="svg_289">
   <line class="solid" fill="#007f00" id="svg_290" x1="185" x2="191" y1="24" y2="24"/>
   <line class="solid" fill="#007f00" id="svg_291" x1="191" x2="191" y1="24" y2="44"/>
   <line class="solid" fill="#007f00" id="svg_292" x1="183" x2="191" y1="44" y2="44"/>
   <line class="solid" fill="#007f00" id="svg_293" x1="183" x2="183" y1="44" y2="48"/>
  </g>
  <g id="svg_294">
   <line class="solid" fill="#007f00" id="svg_295" x1="185" x2="187" y1="28" y2="28"/>
   <line class="solid" fill="#007f00" id="svg_296" x1="187" x2="187" y1="28" y2="40"/>
   <line class="solid" fill="#007f00" id="svg_297" x1="179" x2="187" y1="40" y2="40"/>
   <line class="solid" fill="#007f00" id="svg_298" x1="179" x2="179" y1="40" y2="48"/>
  </g>
  <g id="svg_299">
   <line class="solid" fill="#007f00" id="svg_300" x1="401" x2="407" y1="24" y2="24"/>
   <line class="solid" fill="#007f00" id="svg_301" x1="407" x2="407" y1="24" y2="32"/>
  </g>
  <g id="svg_302">
   <line class="solid" fill="#007f00" id="svg_303" x1="401" x2="403" y1="28" y2="28"/>
   <line class="solid" fill="#007f00" id="svg_304" x1="403" x2="403" y1="28" y2="32"/>
  </g>
  <g id="svg_305">
   <line class="solid" fill="#007f00" id="svg_306" x1="57" x2="63" y1="40" y2="40"/>
   <line class="solid" fill="#007f00" id="svg_307" x1="63" x2="63" y1="40" y2="92"/>
   <line class="solid" fill="#007f00" id="svg_308" x1="3" x2="3" y1="80" y2="92"/>
   <line class="solid" fill="#007f00" id="svg_309" x1="3" x2="63" y1="92" y2="92"/>
  </g>
  <g id="svg_310">
   <line class="solid" fill="#007f00" id="svg_311" x1="57" x2="59" y1="44" y2="44"/>
   <line class="solid" fill="#007f00" id="svg_312" x1="59" x2="59" y1="44" y2="88"/>
   <line class="solid" fill="#007f00" id="svg_313" x1="7" x2="7" y1="80" y2="88"/>
   <line class="solid" fill="#007f00" id="svg_314" x1="7" x2="59" y1="88" y2="88"/>
  </g>
  <g id="svg_315">
   <line class="solid" fill="#007f00" id="svg_316" x1="387" x2="393" y1="40" y2="40"/>
   <line class="solid" fill="#007f00" id="svg_317" x1="387" x2="387" y1="40" y2="88"/>
   <line class="solid" fill="#007f00" id="svg_318" x1="375" x2="375" y1="80" y2="88"/>
   <line class="solid" fill="#007f00" id="svg_319" x1="375" x2="387" y1="88" y2="88"/>
  </g>
  <g id="svg_320">
   <line class="solid" fill="#007f00" id="svg_321" x1="391" x2="393" y1="44" y2="44"/>
   <line class="solid" fill="#007f00" id="svg_322" x1="391" x2="391" y1="44" y2="92"/>
   <line class="solid" fill="#007f00" id="svg_323" x1="371" x2="371" y1="80" y2="92"/>
   <line class="solid" fill="#007f00" id="svg_324" x1="371" x2="391" y1="92" y2="92"/>
  </g>
  <g id="svg_325">
   <line class="solid" fill="#007f00" id="svg_326" x1="409" x2="415" y1="40" y2="40"/>
   <line class="solid" fill="#007f00" id="svg_327" x1="415" x2="415" y1="40" y2="48"/>
  </g>
  <g id="svg_328">
   <line class="solid" fill="#007f00" id="svg_329" x1="409" x2="411" y1="44" y2="44"/>
   <line class="solid" fill="#007f00" id="svg_330" x1="411" x2="411" y1="44" y2="48"/>
  </g>
  <g id="svg_331">
   <line class="solid" fill="#007f00" id="svg_332" x1="3" x2="3" y1="48" y2="60"/>
   <line class="solid" fill="#007f00" id="svg_333" x1="3" x2="41" y1="60" y2="60"/>
  </g>
  <g id="svg_334">
   <line class="solid" fill="#007f00" id="svg_335" x1="7" x2="7" y1="48" y2="56"/>
   <line class="solid" fill="#007f00" id="svg_336" x1="7" x2="41" y1="56" y2="56"/>
  </g>
  <g id="svg_337">
   <line class="solid" fill="#007f00" id="svg_338" x1="83" x2="105" y1="56" y2="56"/>
   <line class="solid" fill="#007f00" id="svg_339" x1="83" x2="83" y1="56" y2="88"/>
   <line class="solid" fill="#007f00" id="svg_340" x1="71" x2="71" y1="80" y2="88"/>
   <line class="solid" fill="#007f00" id="svg_341" x1="71" x2="83" y1="88" y2="88"/>
  </g>
  <g id="svg_342">
   <line class="solid" fill="#007f00" id="svg_343" x1="87" x2="105" y1="60" y2="60"/>
   <line class="solid" fill="#007f00" id="svg_344" x1="87" x2="87" y1="60" y2="92"/>
   <line class="solid" fill="#007f00" id="svg_345" x1="67" x2="67" y1="80" y2="92"/>
   <line class="solid" fill="#007f00" id="svg_346" x1="67" x2="87" y1="92" y2="92"/>
  </g>
  <g id="svg_347">
   <line class="solid" fill="#007f00" id="svg_348" x1="147" x2="169" y1="56" y2="56"/>
   <line class="solid" fill="#007f00" id="svg_349" x1="147" x2="147" y1="56" y2="88"/>
   <line class="solid" fill="#007f00" id="svg_350" x1="135" x2="135" y1="80" y2="88"/>
   <line class="solid" fill="#007f00" id="svg_351" x1="135" x2="147" y1="88" y2="88"/>
  </g>
  <g id="svg_352">
   <line class="solid" fill="#007f00" id="svg_353" x1="151" x2="169" y1="60" y2="60"/>
   <line class="solid" fill="#007f00" id="svg_354" x1="151" x2="151" y1="60" y2="92"/>
   <line class="solid" fill="#007f00" id="svg_355" x1="131" x2="131" y1="80" y2="92"/>
   <line class="solid" fill="#007f00" id="svg_356" x1="131" x2="151" y1="92" y2="92"/>
  </g>
  <g id="svg_357">
   <line class="solid" fill="#007f00" id="svg_358" x1="185" x2="191" y1="56" y2="56"/>
   <line class="solid" fill="#007f00" id="svg_359" x1="191" x2="191" y1="56" y2="92"/>
   <line class="solid" fill="#007f00" id="svg_360" x1="171" x2="171" y1="80" y2="92"/>
   <line class="solid" fill="#007f00" id="svg_361" x1="171" x2="191" y1="92" y2="92"/>
  </g>
  <g id="svg_362">
   <line class="solid" fill="#007f00" id="svg_363" x1="185" x2="187" y1="60" y2="60"/>
   <line class="solid" fill="#007f00" id="svg_364" x1="187" x2="187" y1="60" y2="88"/>
   <line class="solid" fill="#007f00" id="svg_365" x1="175" x2="175" y1="80" y2="88"/>
   <line class="solid" fill="#007f00" id="svg_366" x1="175" x2="187" y1="88" y2="88"/>
  </g>
  <g id="svg_367">
   <line class="solid" fill="#007f00" id="svg_368" x1="235" x2="249" y1="56" y2="56"/>
   <line class="solid" fill="#007f00" id="svg_369" x1="235" x2="235" y1="56" y2="88"/>
   <line class="solid" fill="#007f00" id="svg_370" x1="223" x2="223" y1="80" y2="88"/>
   <line class="solid" fill="#007f00" id="svg_371" x1="223" x2="235" y1="88" y2="88"/>
  </g>
  <g id="svg_372">
   <line class="solid" fill="#007f00" id="svg_373" x1="239" x2="249" y1="60" y2="60"/>
   <line class="solid" fill="#007f00" id="svg_374" x1="239" x2="239" y1="60" y2="92"/>
   <line class="solid" fill="#007f00" id="svg_375" x1="219" x2="219" y1="80" y2="92"/>
   <line class="solid" fill="#007f00" id="svg_376" x1="219" x2="239" y1="92" y2="92"/>
  </g>
  <g id="svg_377">
   <line class="solid" fill="#007f00" id="svg_378" x1="265" x2="271" y1="56" y2="56"/>
   <line class="solid" fill="#007f00" id="svg_379" x1="271" x2="271" y1="56" y2="64"/>
  </g>
  <g id="svg_380">
   <line class="solid" fill="#007f00" id="svg_381" x1="265" x2="267" y1="60" y2="60"/>
   <line class="solid" fill="#007f00" id="svg_382" x1="267" x2="267" y1="60" y2="64"/>
  </g>
  <g id="svg_383">
   <line class="solid" fill="#007f00" id="svg_384" x1="299" x2="321" y1="56" y2="56"/>
   <line class="solid" fill="#007f00" id="svg_385" x1="299" x2="299" y1="56" y2="88"/>
   <line class="solid" fill="#007f00" id="svg_386" x1="287" x2="287" y1="80" y2="88"/>
   <line class="solid" fill="#007f00" id="svg_387" x1="287" x2="299" y1="88" y2="88"/>
  </g>
  <g id="svg_388">
   <line class="solid" fill="#007f00" id="svg_389" x1="303" x2="321" y1="60" y2="60"/>
   <line class="solid" fill="#007f00" id="svg_390" x1="303" x2="303" y1="60" y2="92"/>
   <line class="solid" fill="#007f00" id="svg_391" x1="283" x2="283" y1="80" y2="92"/>
   <line class="solid" fill="#007f00" id="svg_392" x1="283" x2="303" y1="92" y2="92"/>
  </g>
  <g id="svg_393">
   <line class="solid" fill="#007f00" id="svg_394" x1="395" x2="395" y1="48" y2="60"/>
   <line class="solid" fill="#007f00" id="svg_395" x1="395" x2="401" y1="60" y2="60"/>
  </g>
  <g id="svg_396">
   <line class="solid" fill="#007f00" id="svg_397" x1="399" x2="399" y1="48" y2="56"/>
   <line class="solid" fill="#007f00" id="svg_398" x1="399" x2="401" y1="56" y2="56"/>
  </g>
  <g id="svg_399">
   <line class="solid" fill="#007f00" id="svg_400" x1="417" x2="423" y1="56" y2="56"/>
   <line class="solid" fill="#007f00" id="svg_401" x1="423" x2="423" y1="56" y2="64"/>
  </g>
  <g id="svg_402">
   <line class="solid" fill="#007f00" id="svg_403" x1="417" x2="419" y1="60" y2="60"/>
   <line class="solid" fill="#007f00" id="svg_404" x1="419" x2="419" y1="60" y2="64"/>
  </g>
  <g id="svg_405">
   <line class="solid" fill="#007f00" id="svg_406" x1="273" x2="279" y1="72" y2="72"/>
   <line class="solid" fill="#007f00" id="svg_407" x1="279" x2="279" y1="72" y2="92"/>
   <line class="solid" fill="#007f00" id="svg_408" x1="259" x2="259" y1="80" y2="92"/>
   <line class="solid" fill="#007f00" id="svg_409" x1="259" x2="279" y1="92" y2="92"/>
  </g>
  <g id="svg_410">
   <line class="solid" fill="#007f00" id="svg_411" x1="273" x2="275" y1="76" y2="76"/>
   <line class="solid" fill="#007f00" id="svg_412" x1="275" x2="275" y1="76" y2="88"/>
   <line class="solid" fill="#007f00" id="svg_413" x1="263" x2="263" y1="80" y2="88"/>
   <line class="solid" fill="#007f00" id="svg_414" x1="263" x2="275" y1="88" y2="88"/>
  </g>
  <g id="svg_415">
   <line class="solid" fill="#007f00" id="svg_416" x1="403" x2="403" y1="64" y2="76"/>
   <line class="solid" fill="#007f00" id="svg_417" x1="403" x2="409" y1="76" y2="76"/>
  </g>
  <g id="svg_418">
   <line class="solid" fill="#007f00" id="svg_419" x1="407" x2="407" y1="64" y2="72"/>
   <line class="solid" fill="#007f00" id="svg_420" x1="407" x2="409" y1="72" y2="72"/>
  </g>
 </g>
</svg>
